<svg xmlns="http://www.w3.org/2000/svg" viewBox="0 0 64 64" role="img" aria-label="SR logo">
  <defs>
    <linearGradient id="g" x1="0" y1="0" x2="1" y2="1">
      <stop offset="0%" stop-color="#0f766e"/>
      <stop offset="100%" stop-color="#115e59"/>
    </linearGradient>
  </defs>
  <rect width="64" height="64" rx="18" fill="url(#g)"/>
  <path d="M20 42.5c2.5 2.2 6.2 3.7 10.4 3.7 5.9 0 9.5-2.9 9.5-7.2 0-4-3.1-5.8-7.7-6.8l-3.5-.8c-2.5-.6-3.9-1.4-3.9-3.2 0-2.1 2.1-3.4 5-3.4 3 0 5.5 1 7.6 2.7l2.3-3.7c-2.7-2.2-6.3-3.4-9.8-3.4-5.7 0-9.6 3.1-9.6 7.4 0 3.9 2.8 5.8 7.1 6.7l3.7.8c2.8.6 4.2 1.5 4.2 3.4 0 2.1-2 3.6-5.4 3.6-3.5 0-6.7-1.4-9-3.4L20 42.5zm28.7-20.1h-6.1v20h5.2V35h1c4.4 0 7.2-2.8 7.2-6.6 0-3.9-2.8-6-7.3-6zm-.2 9.2h-.7v-5h.7c2.4 0 3.7 1 3.7 2.5 0 1.6-1.3 2.5-3.7 2.5z" fill="#ffffff"/>
</svg>
